<svg width="28" height="28" viewBox="0 0 28 28" fill="none" xmlns="http://www.w3.org/2000/svg">
<path d="M13.9902 22.7422C18.9736 22.7422 23.0869 18.6289 23.0869 13.6543C23.0869 8.67969 18.9648 4.56641 13.9814 4.56641C9.00684 4.56641 4.90234 8.67969 4.90234 13.6543C4.90234 18.6289 9.01562 22.7422 13.9902 22.7422ZM13.9902 17.9258C11.6523 17.9258 9.99121 16.1768 9.99121 13.584C9.99121 10.9912 11.6523 9.25098 13.9902 9.25098C16.3281 9.25098 17.9805 10.9912 17.9805 13.584C17.9805 15.0693 17.4355 16.2822 16.5303 17.0293L16.9785 17.627C17.1543 17.873 17.207 18.0049 17.207 18.1982C17.207 18.5674 16.9346 18.8311 16.5479 18.8311C16.2666 18.8311 16.0732 18.7168 15.8623 18.418L15.335 17.6973C14.9219 17.8467 14.4736 17.9258 13.9902 17.9258ZM13.9902 16.5107C14.21 16.5107 14.4121 16.4844 14.5967 16.4229L14.2363 15.9131C14.1221 15.7637 14.0693 15.6318 14.0693 15.4736C14.0693 15.166 14.333 14.9375 14.6406 14.9375C14.8428 14.9375 14.9658 14.999 15.0889 15.1572L15.5283 15.7285C15.959 15.2363 16.2051 14.498 16.2051 13.584C16.2051 11.791 15.3174 10.666 13.9902 10.666C12.6543 10.666 11.7754 11.791 11.7754 13.584C11.7754 15.3857 12.6543 16.5107 13.9902 16.5107Z" fill="white"/>
</svg>
